<svg height="512pt" viewBox="0 0 512 512.13256" width="512pt" xmlns="http://www.w3.org/2000/svg"><path d="m149.398438 10.667969h330.667968c11.78125 0 21.332032 9.550781 21.332032 21.332031v320c0 11.78125-9.550782 21.332031-21.332032 21.332031h-330.667968c-11.78125 0-21.332032-9.550781-21.332032-21.332031v-320c0-11.78125 9.550782-21.332031 21.332032-21.332031zm0 0" fill="#fff"/><path d="m341.398438 150.292969v52.375h-52.371094c4.53125-26.828125 25.546875-47.84375 52.371094-52.375zm0 0" fill="#fff"/><g fill="#58abfb"><path d="m341.398438 96v54.292969c-26.824219 4.53125-47.839844 25.546875-52.371094 52.375h-54.292969v-106.667969zm0 0"/><path d="m352.066406 149.332031c35.347656 0 64 28.65625 64 64 0 35.347657-28.652344 64-64 64s-64-28.652343-64-64c-.007812-3.574219.3125-7.148437.960938-10.664062h52.371094v-52.375c3.519531-.644531 7.089843-.96875 10.667968-.960938zm0 0"/><path d="m469.398438 480c0 11.78125-9.550782 21.332031-21.332032 21.332031s-21.332031-9.550781-21.332031-21.332031 9.550781-21.332031 21.332031-21.332031 21.332032 9.550781 21.332032 21.332031zm0 0"/><path d="m64.066406 224c0-35.347656 28.652344-64 64-64 35.324219.054688 63.945313 28.675781 64 64v21.332031h-10.667968s-74.664063 0-74.664063-32c0 0-10.667969 32-32 32h-10.667969zm0 0"/><path d="m64.066406 501.332031h-53.332031v-96c0-35.34375 28.652344-64 64-64h21.332031c0 17.675781 14.328125 32 32 32s32-14.324219 32-32h128v64h-74.667968v96zm0 0"/></g><path d="m342.679688 350.71875c9.140624 9.152344 11.871093 22.90625 6.925781 34.855469-4.949219 11.953125-16.605469 19.746093-29.539063 19.757812h-32v-64h32c8.484375 0 16.621094 3.378907 22.613282 9.386719zm0 0" fill="#fff"/><path d="m160.066406 320v21.332031c0 17.675781-14.328125 32-32 32s-32-14.324219-32-32v-21.332031c18.960938 14.222656 45.035156 14.222656 64 0zm0 0" fill="#fff"/><path d="m181.398438 245.332031v32c.027343 3.550781-.332032 7.089844-1.066407 10.5625-2.050781 10.296875-7.097656 19.757813-14.503906 27.199219l-5.761719 4.90625c-18.964844 14.222656-45.039062 14.222656-64 0-10.453125-7.863281-17.664062-19.285156-20.265625-32.105469-.734375-3.472656-1.09375-7.011719-1.066406-10.5625v-32c21.332031 0 32-32 32-32 0 32 74.664063 32 74.664063 32zm0 0" fill="#fff"/><path d="m320.066406 330.667969h-149.332031v-5.773438l2.6875-2.3125c6.910156-7.003906 12.128906-15.492187 15.253906-24.820312 11.609375-2.652344 20.761719-11.570313 23.722657-23.101563 2.960937-11.535156-.769532-23.757812-9.664063-31.671875v-18.988281c-.054687-41.214844-33.453125-74.613281-74.667969-74.667969-41.21875.046875-74.621094 33.449219-74.667968 74.667969v18.988281c-8.921876 7.941407-12.644532 20.210938-9.636719 31.769531 3.003906 11.558594 12.230469 20.464844 23.886719 23.054688 3.527343 10.316406 9.636718 19.558594 17.75 26.839844v6.015625h-10.664063c-41.21875.046875-74.621094 33.449219-74.6679688 74.664062v96c0 5.890625 4.7773438 10.667969 10.6679688 10.667969h202.664063c5.890624 0 10.667968-4.777344 10.667968-10.667969v-85.332031h96c23.5625 0 42.667969-19.101562 42.667969-42.667969 0-23.5625-19.105469-42.664062-42.667969-42.664062zm-213.332031 6.976562c13.792969 4.933594 28.871094 4.933594 42.664063 0v3.6875c0 11.785157-9.550782 21.335938-21.332032 21.335938s-21.332031-9.550781-21.332031-21.335938zm64-60.3125c.019531 2.867188-.269531 5.730469-.867187 8.535157-1.554688 7.941406-5.355469 15.273437-10.953126 21.121093l-5.332031 4.53125c-11.738281 8.777344-27.15625 10.914063-40.839843 5.664063-13.683594-5.25-23.710938-17.15625-26.5625-31.53125-.558594-2.734375-.820313-5.527344-.78125-8.320313v-23.125c8.855468-3.535156 16.375-9.757812 21.503906-17.792969 16.332031 14.390626 47.125 18.21875 63.832031 19.203126zm-96-42.664062v-10.667969c.035156-29.441406 23.890625-53.296875 53.332031-53.332031 29.433594.050781 53.28125 23.898437 53.332032 53.332031v10.667969c-22.3125 0-64-6.253907-64-21.335938-.011719-5.222656-3.800782-9.667969-8.957032-10.503906s-10.160156 2.183594-11.820312 7.132813c-1.738282 5.21875-10.558594 24.707031-21.886719 24.707031zm138.664063 160c-5.890626 0-10.664063 4.773437-10.664063 10.664062v85.335938h-128v-53.335938h-21.335937v53.335938h-32v-85.335938c.035156-29.4375 23.894531-53.296875 53.335937-53.332031h12.179687c4.757813 18.847656 21.710938 32.054688 41.152344 32.054688s36.394532-13.207032 41.152344-32.054688h108.179688v42.667969zm106.667968 0h-21.332031v-42.667969h21.332031c11.78125 0 21.332032 9.550781 21.332032 21.332031 0 11.785157-9.550782 21.335938-21.332032 21.335938zm0 0" fill="#107be8"/><path d="m480.066406 0h-330.667968c-17.671876 0-32 14.328125-32 32v96h21.335937v-96c0-5.890625 4.773437-10.667969 10.664063-10.667969h330.667968c5.890625 0 10.667969 4.777344 10.667969 10.667969v320c0 5.890625-4.777344 10.667969-10.667969 10.667969h-96v21.332031h53.332032v65.960938c-14.691407 5.195312-23.507813 20.222656-20.871094 35.582031 2.636718 15.363281 15.953125 26.589843 31.539062 26.589843 15.585938 0 28.902344-11.226562 31.539063-26.589843 2.636719-15.359375-6.179688-30.386719-20.871094-35.582031v-65.960938h21.332031c17.671875 0 32-14.328125 32-32v-320c0-17.671875-14.328125-32-32-32zm-32 490.667969c-5.890625 0-10.667968-4.777344-10.667968-10.667969s4.777343-10.667969 10.667968-10.667969 10.667969 4.777344 10.667969 10.667969-4.777344 10.667969-10.667969 10.667969zm0 0" fill="#107be8"/><path d="m341.398438 85.332031h-106.664063c-5.890625 0-10.667969 4.777344-10.667969 10.667969v106.667969c0 5.890625 4.777344 10.664062 10.667969 10.664062h42.664063c0 41.238281 33.429687 74.667969 74.667968 74.667969 41.238282 0 74.667969-33.429688 74.667969-74.667969 0-41.234375-33.429687-74.664062-74.667969-74.664062v-42.667969c0-5.890625-4.777344-10.667969-10.667968-10.667969zm-96 106.667969v-85.332031h85.335937v35.328125c-24.046875 7.144531-42.855469 25.957031-49.996094 50.003906zm85.335937-27.308594v27.308594h-27.328125c5.34375-12.21875 15.105469-21.96875 27.328125-27.308594zm74.664063 48.640625c0 29.457031-23.878907 53.335938-53.332032 53.335938-29.457031 0-53.332031-23.878907-53.332031-53.335938h42.664063c5.890624 0 10.667968-4.773437 10.667968-10.664062v-42.667969c29.441406.035156 53.296875 23.894531 53.332032 53.332031zm0 0" fill="#107be8"/><path d="m469.398438 96v-21.332031c0-17.675781-14.324219-32-32-32h-21.332032v21.332031h21.332032c5.890624 0 10.667968 4.777344 10.667968 10.667969v21.332031zm0 0" fill="#107be8"/><path d="m373.398438 42.667969h21.335937v21.332031h-21.335937zm0 0" fill="#107be8"/></svg>