<?xml version="1.0"?>
<svg xmlns="http://www.w3.org/2000/svg" viewBox="0 0 96 96" width="512" height="512"><g id="_20.Programming" data-name="20.Programming"><path d="M95,8V65H1V8A4,4,0,0,1,5,4H91A4,4,0,0,1,95,8Z" style="fill:#58abfb"/><polygon points="58 80 67 92 29 92 38 80 58 80" style="fill:#fff"/><path d="M95,65V76a4,4,0,0,1-4,4H5a4,4,0,0,1-4-4V65Z" style="fill:#fff"/><polygon points="58 80 38 80 35 84 61 84 58 80" style="fill:#58abfb"/><rect x="11" y="14" width="64" height="44" rx="2" ry="2" style="fill:#58abfb"/><rect x="7" y="10" width="64" height="44" rx="2" ry="2" style="fill:#fff"/><path d="M71,12a2.006,2.006,0,0,0-2-2H9a2.006,2.006,0,0,0-2,2v6H71Z" style="fill:#58abfb"/><rect x="43" y="27" width="46" height="32" rx="2" ry="2" style="fill:#fff"/><path d="M89,29a2.006,2.006,0,0,0-2-2H45a2.006,2.006,0,0,0-2,2v5H89Z" style="fill:#58abfb"/><path d="M91,3H5A5.006,5.006,0,0,0,0,8V76a5.006,5.006,0,0,0,5,5,1,1,0,0,0,0-2,3,3,0,0,1-3-3V66H94V76a3,3,0,0,1-3,3H10a1,1,0,0,0,0,2H36L28.5,91H25a1,1,0,0,0,0,2H71a1,1,0,0,0,0-2H67.5L60,81H91a5.006,5.006,0,0,0,5-5V8A5.006,5.006,0,0,0,91,3ZM65,91H31l7.5-10h19ZM2,64V8A3,3,0,0,1,5,5H91a3,3,0,0,1,3,3V64Z" style="fill:#107be8"/><path d="M50,73a1,1,0,0,0,0-2H46a1,1,0,0,0,0,2Z" style="fill:#107be8"/><path d="M38,53H9a1,1,0,0,1-1-1V12a1,1,0,0,1,1-1H61a1,1,0,0,0,0-2H9a3,3,0,0,0-3,3V52a3,3,0,0,0,3,3H38a1,1,0,0,0,0-2Z" style="fill:#107be8"/><path d="M12,14a1,1,0,0,0,0,2h2a1,1,0,0,0,0-2Z" style="fill:#107be8"/><path d="M19,14a1,1,0,0,0,0,2h2a1,1,0,0,0,0-2Z" style="fill:#107be8"/><path d="M64,16h2a1,1,0,0,0,0-2H64a1,1,0,0,0,0,2Z" style="fill:#107be8"/><path d="M87,26H72V12a3,3,0,0,0-3-3H66a1,1,0,0,0,0,2h3a1,1,0,0,1,1,1V26H45a3,3,0,0,0-3,3V57a3,3,0,0,0,3,3H87a3,3,0,0,0,3-3V29A3,3,0,0,0,87,26Zm1,31a1,1,0,0,1-1,1H45a1,1,0,0,1-1-1V29a1,1,0,0,1,1-1H87a1,1,0,0,1,1,1Z" style="fill:#107be8"/><path d="M84,30H48a1,1,0,0,0,0,2H84a1,1,0,0,0,0-2Z" style="fill:#107be8"/><path d="M59.769,39.359a1,1,0,0,0-1.41-.128l-6,5a1,1,0,0,0,0,1.538l6,5a1,1,0,0,0,1.282-1.538L54.562,45l5.079-4.231A1,1,0,0,0,59.769,39.359Z" style="fill:#107be8"/><path d="M73.641,39.231a1,1,0,1,0-1.282,1.538L77.437,45l-5.078,4.231a1,1,0,0,0,1.282,1.538l6-5a1,1,0,0,0,0-1.538Z" style="fill:#107be8"/><path d="M68.258,37.034a1,1,0,0,0-1.224.708l-4,15a1,1,0,1,0,1.932.516l4-15A1,1,0,0,0,68.258,37.034Z" style="fill:#107be8"/></g></svg>
