<svg height="512pt" viewBox="0 -3 512 511" width="512pt" xmlns="http://www.w3.org/2000/svg"><path d="m432 256.5c0 97.203125-78.796875 176-176 176s-176-78.796875-176-176 78.796875-176 176-176 176 78.796875 176 176zm0 0" fill="#fff"/><path d="m400 256.5c0 79.527344-64.472656 144-144 144s-144-64.472656-144-144 64.472656-144 144-144 144 64.472656 144 144zm0 0" fill="#58abfb"/><path d="m360 184.5-32 32v80h176v-80l-32-32zm0 0" fill="#fff"/><path d="m392 184.5 24 24-8.160156 2.082031-23.839844 5.917969-8-32zm0 0" fill="#58abfb"/><path d="m416 208.5 24-24h16l-8 32-23.839844-5.917969zm0 0" fill="#58abfb"/><path d="m480 8.5-16 32 16 8-16 24h-40l-32-32-24 24-16-16v-16l24-24zm0 0" fill="#58abfb"/><path d="m368 80.5v40c-.003906 2.65625.234375 5.308594.71875 7.921875l-.71875.078125c-13.253906 0-24-10.746094-24-24s10.746094-24 24-24zm0 0" fill="#58abfb"/><path d="m488 104.5c0 13.253906-10.746094 24-24 24l-.71875-.078125c.484375-2.613281.722656-5.265625.71875-7.921875v-40c13.253906 0 24 10.746094 24 24zm0 0" fill="#58abfb"/><path d="m440 162.019531v22.480469l-24 24-24-24v-22.480469c14.832031 8.640625 33.167969 8.640625 48 0zm0 0" fill="#58abfb"/><path d="m440 162.019531c-14.832031 8.640625-33.167969 8.640625-48 0-12.429688-7.117187-20.984375-19.460937-23.28125-33.597656-.484375-2.613281-.722656-5.265625-.71875-7.921875v-56l24-24 32 32h40v48c.003906 2.65625-.234375 5.308594-.71875 7.921875-1.570312 9.867187-6.25 18.976563-13.359375 26-2.949219 2.972656-6.285156 5.527344-9.921875 7.597656zm0 0" fill="#fff"/><path d="m480 8.5h-104l-20 20h104l-16 32 16 8-2.664062 4h6.664062l16-24-16-8zm0 0" fill="#58abfb"/><path d="m416 168.5c-8.4375.039062-16.730469-2.199219-24-6.480469v16c14.832031 8.640625 33.167969 8.640625 48 0v-16c-7.269531 4.28125-15.5625 6.519531-24 6.480469zm0 0" fill="#58abfb"/><path d="m424 72.5-32-32-24 24v24l24-24 32 32h40v-24zm0 0" fill="#58abfb"/><path d="m344 224.5h16v72h-16zm0 0" fill="#58abfb"/><path d="m472 224.5h16v72h-16zm0 0" fill="#58abfb"/><path d="m40 184.5-32 32v80h176v-80l-32-32zm0 0" fill="#fff"/><path d="m72 184.5 24 24-8.160156 2.082031-23.839844 5.917969-8-32zm0 0" fill="#58abfb"/><path d="m96 208.5 24-24h16l-8 32-23.839844-5.917969zm0 0" fill="#58abfb"/><path d="m160 8.5-16 32 16 8-16 24h-40l-32-32-24 24-16-16v-16l24-24zm0 0" fill="#58abfb"/><path d="m48 80.5v40c-.003906 2.65625.234375 5.308594.71875 7.921875l-.71875.078125c-13.253906 0-24-10.746094-24-24s10.746094-24 24-24zm0 0" fill="#58abfb"/><path d="m168 104.5c0 13.253906-10.746094 24-24 24l-.71875-.078125c.484375-2.613281.722656-5.265625.71875-7.921875v-40c13.253906 0 24 10.746094 24 24zm0 0" fill="#58abfb"/><path d="m120 162.019531v22.480469l-24 24-24-24v-22.480469c14.832031 8.640625 33.167969 8.640625 48 0zm0 0" fill="#58abfb"/><path d="m120 162.019531c-14.832031 8.640625-33.167969 8.640625-48 0-12.429688-7.117187-20.984375-19.460937-23.28125-33.597656-.484375-2.613281-.722656-5.265625-.71875-7.921875v-56l24-24 32 32h40v48c.003906 2.65625-.234375 5.308594-.71875 7.921875-1.570312 9.867187-6.25 18.976563-13.359375 26-2.949219 2.972656-6.285156 5.527344-9.921875 7.597656zm0 0" fill="#fff"/><path d="m160 8.5h-104l-20 20h104l-16 32 16 8-2.664062 4h6.664062l16-24-16-8zm0 0" fill="#58abfb"/><path d="m96 168.5c-8.4375.039062-16.730469-2.199219-24-6.480469v16c14.832031 8.640625 33.167969 8.640625 48 0v-16c-7.269531 4.28125-15.5625 6.519531-24 6.480469zm0 0" fill="#58abfb"/><path d="m104 72.5-32-32-24 24v24l24-24 32 32h40v-24zm0 0" fill="#58abfb"/><path d="m24 224.5h16v72h-16zm0 0" fill="#58abfb"/><path d="m152 224.5h16v72h-16zm0 0" fill="#58abfb"/><path d="m200 424.5-32 32v48h176v-48l-32-32zm0 0" fill="#fff"/><path d="m232 424.5 24 24-8.160156 2.082031-23.839844 5.917969-8-32zm0 0" fill="#58abfb"/><path d="m256 448.5 24-24h16l-8 32-23.839844-5.917969zm0 0" fill="#58abfb"/><path d="m320 248.5-16 32 16 8-16 24h-40l-32-32-24 24-16-16v-16l24-24zm0 0" fill="#58abfb"/><path d="m208 320.5v40c-.003906 2.65625.234375 5.308594.71875 7.921875l-.71875.078125c-13.253906 0-24-10.746094-24-24s10.746094-24 24-24zm0 0" fill="#58abfb"/><path d="m328 344.5c0 13.253906-10.746094 24-24 24l-.71875-.078125c.484375-2.613281.722656-5.265625.71875-7.921875v-40c13.253906 0 24 10.746094 24 24zm0 0" fill="#58abfb"/><path d="m280 402.019531v22.480469l-24 24-24-24v-22.480469c14.832031 8.640625 33.167969 8.640625 48 0zm0 0" fill="#58abfb"/><path d="m280 402.019531c-14.832031 8.640625-33.167969 8.640625-48 0-12.429688-7.117187-20.984375-19.460937-23.28125-33.597656-.484375-2.613281-.722656-5.265625-.71875-7.921875v-56l24-24 32 32h40v48c.003906 2.65625-.234375 5.308594-.71875 7.921875-1.570312 9.867187-6.25 18.976563-13.359375 26-2.949219 2.972656-6.285156 5.527344-9.921875 7.597656zm0 0" fill="#fff"/><path d="m320 248.5h-104l-20 20h104l-16 32 16 8-2.664062 4h6.664062l16-24-16-8zm0 0" fill="#58abfb"/><path d="m256 408.5c-8.4375.039062-16.730469-2.199219-24-6.480469v16c14.832031 8.640625 33.167969 8.640625 48 0v-16c-7.269531 4.28125-15.5625 6.519531-24 6.480469zm0 0" fill="#58abfb"/><path d="m264 312.5-32-32-24 24v24l24-24 32 32h40v-24zm0 0" fill="#58abfb"/><path d="m184 464.5h16v40h-16zm0 0" fill="#58abfb"/><path d="m312 464.5h16v40h-16zm0 0" fill="#58abfb"/><g fill="#107be8"><path d="m317.65625 418.84375c-1.5-1.5-3.535156-2.34375-5.65625-2.34375h-24v-10.113281c10.535156-7.363281 18.230469-18.117188 21.792969-30.46875 14.613281-2.644531 25.46875-15.03125 26.164062-29.867188.699219-14.835937-8.941406-28.1875-23.246093-32.191406l13.945312-20.917969c1.273438-1.910156 1.667969-4.277344 1.078125-6.496094s-2.105469-4.078124-4.160156-5.105468l-8.839844-4.414063 12.464844-24.851562c1.242187-2.484375 1.105469-5.4375-.363281-7.800781-1.46875-2.359376-4.054688-3.789063-6.835938-3.773438h-104c-2.121094 0-4.15625.84375-5.65625 2.34375l-24 24c-1.5 1.5-2.34375 3.535156-2.34375 5.65625v16c0 2.121094.84375 4.15625 2.34375 5.65625l13.65625 13.65625v5.824219c-14.535156 3.703125-24.523438 17.039062-23.992188 32.027343.53125 14.992188 11.4375 27.585938 26.199219 30.253907 3.5625 12.351562 11.257813 23.105469 21.792969 30.46875v10.113281h-24c-2.121094 0-4.15625.84375-5.65625 2.34375l-32 32c-1.5 1.5-2.34375 3.535156-2.34375 5.65625v48h16v-44.6875l27.3125-27.3125h6.449219l6.476562 25.9375c.890625 3.5625 4.089844 6.0625 7.761719 6.0625.65625 0 1.308594-.082031 1.945312-.238281l30.054688-7.523438 30.0625 7.523438c.636719.15625 1.285156.238281 1.9375.238281 3.667969-.003906 6.863281-2.503906 7.753906-6.0625l6.484375-25.9375h6.449219l27.3125 27.3125v44.6875h16v-48c0-2.121094-.84375-4.15625-2.34375-5.65625zm2.34375-74.34375c-.015625 5.691406-3.066406 10.941406-8 13.777344v-27.554688c4.933594 2.835938 7.984375 8.085938 8 13.777344zm-128 0c.015625-5.691406 3.066406-10.941406 8-13.777344v27.554688c-4.933594-2.835938-7.984375-8.085938-8-13.777344zm8-59.3125v-9.375l19.3125-19.3125h87.742188l-10.253907 20.425781c-1.976562 3.953125-.371093 8.761719 3.582031 10.734375l7.898438 3.945313-8.5625 12.894531h-32.40625l-29.65625-29.65625c-3.125-3.121094-8.1875-3.121094-11.3125 0l-18.34375 18.34375zm16 75.3125v-52.6875l16-16 26.34375 26.34375c1.5 1.5 3.535156 2.34375 5.65625 2.34375h32v40c0 22.089844-17.910156 40-40 40s-40-17.910156-40-40zm40 56c5.421875-.015625 10.8125-.824219 16-2.398438v7.046876l-16 16-16-16v-7.046876c5.1875 1.574219 10.578125 2.382813 16 2.398438zm-29.761719 16h2.449219l11.664062 11.664062-10.527343 2.632813zm55.9375 14.296875-10.527343-2.632813 11.664062-11.664062h2.449219zm0 0"/><path d="m192 464.5h16v40h-16zm0 0"/><path d="m304 464.5h16v40h-16zm0 0"/><path d="m509.65625 210.84375-32-32c-1.5-1.5-3.535156-2.34375-5.65625-2.34375h-24v-10.113281c10.535156-7.363281 18.230469-18.117188 21.792969-30.46875 14.613281-2.644531 25.46875-15.03125 26.164062-29.867188.699219-14.835937-8.941406-28.1875-23.246093-32.191406l13.945312-20.917969c1.273438-1.910156 1.667969-4.277344 1.078125-6.496094s-2.105469-4.078124-4.160156-5.105468l-8.839844-4.414063 12.464844-24.851562c1.242187-2.484375 1.105469-5.4375-.363281-7.800781-1.46875-2.359376-4.054688-3.789063-6.835938-3.773438h-104c-2.121094 0-4.15625.84375-5.65625 2.34375l-24 24c-1.5 1.5-2.34375 3.535156-2.34375 5.65625v16c0 2.121094.84375 4.15625 2.34375 5.65625l13.65625 13.65625v5.824219c-14.535156 3.703125-24.523438 17.039062-23.992188 32.027343.53125 14.992188 11.4375 27.585938 26.199219 30.253907 3.5625 12.351562 11.257813 23.105469 21.792969 30.46875v10.113281h-24c-2.121094 0-4.15625.84375-5.65625 2.34375l-32 32c-1.5 1.5-2.34375 3.535156-2.34375 5.65625v16h16v-12.6875l27.3125-27.3125h6.449219l6.476562 25.9375c.890625 3.5625 4.089844 6.0625 7.761719 6.0625.65625 0 1.308594-.082031 1.945312-.238281l30.054688-7.523438 30.0625 7.523438c.636719.15625 1.285156.238281 1.9375.238281 3.667969-.003906 6.863281-2.503906 7.753906-6.0625l6.484375-25.9375h6.449219l27.3125 27.3125v76.6875h16v-80c0-2.121094-.84375-4.15625-2.34375-5.65625zm-29.65625-106.34375c-.015625 5.691406-3.066406 10.941406-8 13.777344v-27.554688c4.933594 2.835938 7.984375 8.085938 8 13.777344zm-128 0c.015625-5.691406 3.066406-10.941406 8-13.777344v27.554688c-4.933594-2.835938-7.984375-8.085938-8-13.777344zm8-59.3125v-9.375l19.3125-19.3125h87.742188l-10.214844 20.425781c-.960938 1.902344-1.125 4.109375-.453125 6.132813.675781 2.023437 2.128906 3.695312 4.039062 4.640625l7.894531 3.945312-8.601562 12.855469h-32.40625l-29.65625-29.65625c-3.125-3.121094-8.1875-3.121094-11.3125 0l-18.34375 18.34375zm16 75.3125v-52.6875l16-16 26.34375 26.34375c1.5 1.5 3.535156 2.34375 5.65625 2.34375h32v40c0 22.089844-17.910156 40-40 40s-40-17.910156-40-40zm40 56c5.421875-.015625 10.8125-.824219 16-2.398438v7.046876l-16 16-16-16v-7.046876c5.1875 1.574219 10.578125 2.382813 16 2.398438zm-29.761719 16h2.449219l11.664062 11.664062-10.527343 2.632813zm55.9375 14.296875-10.527343-2.632813 11.664062-11.664062h2.449219zm0 0"/><path d="m352 224.5h16v72h-16zm0 0"/><path d="m464 224.5h16v72h-16zm0 0"/><path d="m148.6875 192.5 27.3125 27.3125v28.6875h16v-32c0-2.121094-.84375-4.15625-2.34375-5.65625l-32-32c-1.5-1.5-3.535156-2.34375-5.65625-2.34375h-24v-10.113281c10.535156-7.363281 18.230469-18.117188 21.792969-30.46875 14.613281-2.644531 25.46875-15.03125 26.164062-29.867188.699219-14.835937-8.941406-28.1875-23.246093-32.191406l13.945312-20.917969c1.273438-1.910156 1.667969-4.277344 1.078125-6.496094s-2.105469-4.078124-4.160156-5.105468l-8.839844-4.414063 12.464844-24.851562c1.242187-2.484375 1.105469-5.4375-.363281-7.800781-1.46875-2.359376-4.054688-3.789063-6.835938-3.773438h-104c-2.121094 0-4.15625.84375-5.65625 2.34375l-24 24c-1.5 1.5-2.34375 3.535156-2.34375 5.65625v16c0 2.121094.84375 4.15625 2.34375 5.65625l13.65625 13.65625v5.824219c-14.535156 3.703125-24.523438 17.039062-23.992188 32.027343.53125 14.992188 11.4375 27.585938 26.199219 30.253907 3.5625 12.351562 11.257813 23.105469 21.792969 30.46875v10.113281h-24c-2.121094 0-4.15625.84375-5.65625 2.34375l-32 32c-1.5 1.5-2.34375 3.535156-2.34375 5.65625v80h16v-76.6875l27.3125-27.3125h6.449219l6.476562 25.9375c.890625 3.5625 4.089844 6.0625 7.761719 6.0625.65625 0 1.308594-.082031 1.945312-.238281l30.054688-7.523438 30.0625 7.523438c.636719.15625 1.285156.238281 1.9375.238281 3.667969-.003906 6.863281-2.503906 7.753906-6.0625l6.484375-25.9375zm11.3125-88c-.015625 5.691406-3.066406 10.941406-8 13.777344v-27.554688c4.933594 2.835938 7.984375 8.085938 8 13.777344zm-128 0c.015625-5.691406 3.066406-10.941406 8-13.777344v27.554688c-4.933594-2.835938-7.984375-8.085938-8-13.777344zm8-59.3125v-9.375l19.3125-19.3125h87.742188l-10.214844 20.425781c-.960938 1.902344-1.125 4.109375-.453125 6.132813.675781 2.023437 2.128906 3.695312 4.039062 4.640625l7.894531 3.945312-8.601562 12.855469h-32.40625l-29.65625-29.65625c-3.125-3.121094-8.1875-3.121094-11.3125 0l-18.34375 18.34375zm16 75.3125v-52.6875l16-16 26.34375 26.34375c1.5 1.5 3.535156 2.34375 5.65625 2.34375h32v40c0 22.089844-17.910156 40-40 40s-40-17.910156-40-40zm40 56c5.421875-.015625 10.8125-.824219 16-2.398438v7.046876l-16 16-16-16v-7.046876c5.1875 1.574219 10.578125 2.382813 16 2.398438zm-29.761719 16h2.449219l11.664062 11.664062-10.527343 2.632813zm55.9375 14.296875-10.527343-2.632813 11.664062-11.664062h2.449219zm0 0"/><path d="m32 224.5h16v72h-16zm0 0"/><path d="m144 224.5h16v72h-16zm0 0"/><path d="m348 415.875-8-13.847656c35.492188-20.484375 62.28125-53.226563 75.328125-92.070313l15.199219 5.085938c-14.300782 42.546875-43.648438 78.40625-82.527344 100.832031zm0 0"/><path d="m164 415.867188c-38.847656-22.4375-68.167969-58.277344-82.464844-100.800782l15.199219-5.085937c13.046875 38.820312 39.808594 71.546875 75.265625 92.039062zm0 0"/><path d="m326.0625 103.757812c-44.027344-20.128906-94.585938-20.351562-138.789062-.609374l-6.546876-14.59375c48.410157-21.632813 103.785157-21.386719 152 .671874zm0 0"/></g></svg>