<?xml version="1.0"?>
<svg xmlns="http://www.w3.org/2000/svg" xmlns:xlink="http://www.w3.org/1999/xlink" xmlns:svgjs="http://svgjs.com/svgjs" version="1.1" width="512" height="512" x="0" y="0" viewBox="0 0 512 512" style="enable-background:new 0 0 512 512" xml:space="preserve" class=""><g>
<path xmlns="http://www.w3.org/2000/svg" style="" d="M504.307,194.426c-8.515,0.532-16.21,1.933-23.212,3.955l-30.905,69.158h30.905  c7.762-6.47,14.669-10.169,24.573-11.223c3.621-0.385,6.333-3.508,6.333-7.149v-47.559C512,197.439,508.467,194.167,504.307,194.426  z" fill="#8392c9" data-original="#3b4145" class=""/>
<path xmlns="http://www.w3.org/2000/svg" style="" d="M426.529,233.77c-15.545,15.013-23.847,22.23-42.531,22.23s-26.987-7.217-42.532-22.23  c-17.296-16.704-40.983-39.581-85.471-39.581s-68.174,22.877-85.469,39.581c-15.545,15.014-23.846,22.23-42.528,22.23  c-18.683,0-26.984-7.216-42.529-22.23c-16.284-15.727-38.235-36.928-77.879-39.352C3.471,194.166,0,197.48,0,201.607v47.566  c0,3.71,2.826,6.757,6.513,7.162c14.343,1.577,22.401,8.745,36.016,21.895c17.295,16.703,40.982,39.581,85.469,39.581  s68.173-22.877,85.468-39.581c15.545-15.014,23.846-22.23,42.529-22.23c18.684,0,26.986,7.216,42.531,22.23  c17.296,16.704,40.983,39.581,85.472,39.581c44.488,0,68.175-22.876,85.471-39.581c4.306-4.159,8.056-7.717,11.626-10.692v-69.158  C455.562,205.753,439.298,221.438,426.529,233.77z" fill="#8392c9" data-original="#525a61" class=""/>
<g xmlns="http://www.w3.org/2000/svg">
</g>
<g xmlns="http://www.w3.org/2000/svg">
</g>
<g xmlns="http://www.w3.org/2000/svg">
</g>
<g xmlns="http://www.w3.org/2000/svg">
</g>
<g xmlns="http://www.w3.org/2000/svg">
</g>
<g xmlns="http://www.w3.org/2000/svg">
</g>
<g xmlns="http://www.w3.org/2000/svg">
</g>
<g xmlns="http://www.w3.org/2000/svg">
</g>
<g xmlns="http://www.w3.org/2000/svg">
</g>
<g xmlns="http://www.w3.org/2000/svg">
</g>
<g xmlns="http://www.w3.org/2000/svg">
</g>
<g xmlns="http://www.w3.org/2000/svg">
</g>
<g xmlns="http://www.w3.org/2000/svg">
</g>
<g xmlns="http://www.w3.org/2000/svg">
</g>
<g xmlns="http://www.w3.org/2000/svg">
</g>
</g></svg>
